<?xml version="1.0" standalone="no"?>
<!DOCTYPE svg PUBLIC "-//W3C//DTD SVG 20010904//EN"
 "http://www.w3.org/TR/2001/REC-SVG-20010904/DTD/svg10.dtd">
<svg version="1.0" xmlns="http://www.w3.org/2000/svg"
 width="117.000000pt" height="115.000000pt" viewBox="0 0 117.000000 115.000000"
 preserveAspectRatio="xMidYMid meet">

<g transform="translate(0.000000,115.000000) scale(0.100000,-0.100000)"
fill="#000000" stroke="none">
<path d="M0 575 l0 -575 585 0 585 0 0 575 0 575 -585 0 -585 0 0 -575z m693
540 c38 -8 92 -25 120 -38 62 -29 177 -114 177 -130 0 -7 -9 -23 -19 -36 l-18
-24 -57 47 c-98 79 -194 116 -304 116 -234 0 -426 -156 -472 -385 -39 -191 66
-411 240 -504 286 -153 638 21 693 344 12 71 1 183 -24 244 l-15 34 -72 -96
c-39 -53 -72 -99 -72 -102 0 -3 17 -29 38 -58 58 -79 58 -77 19 -77 -29 0 -39
7 -62 40 -15 22 -30 40 -34 40 -3 0 -19 -18 -34 -40 l-28 -40 -89 0 c-81 0
-90 2 -105 23 l-15 22 90 3 90 3 25 37 c14 20 25 41 25 46 0 4 -20 37 -46 72
l-45 64 35 0 c29 0 39 -6 63 -40 15 -22 31 -40 35 -40 3 0 48 56 99 125 51 69
96 125 100 125 14 0 60 -88 81 -153 24 -75 28 -209 9 -287 -45 -185 -196 -348
-376 -402 -129 -39 -292 -26 -409 34 -235 120 -358 404 -281 651 58 190 221
340 415 381 85 19 140 19 223 1z m-397 -417 c9 -13 36 -54 60 -93 l44 -70 0
93 0 92 109 0 c102 0 111 -2 125 -22 9 -12 16 -26 16 -30 0 -5 -43 -8 -95 -8
l-95 0 0 -105 0 -105 -40 0 c-39 0 -40 1 -92 86 -28 47 -55 87 -60 90 -4 3 -8
-36 -8 -85 l0 -91 -30 0 -30 0 0 135 0 135 40 0 c29 0 43 -6 56 -22z m418
-110 c9 -12 16 -26 16 -30 0 -5 -46 -8 -102 -7 -102 0 -103 0 -126 30 l-24 29
111 0 c102 0 111 -2 125 -22z"/>
</g>
</svg>
